<?xml version="1.0" encoding="utf-8"?>
<!-- Generator: Adobe Illustrator 24.1.2, SVG Export Plug-In . SVG Version: 6.00 Build 0)  -->
<svg version="1.1" id="Layer_1" xmlns="http://www.w3.org/2000/svg" xmlns:xlink="http://www.w3.org/1999/xlink" x="0px" y="0px"
	 viewBox="0 0 620.03 107.19" style="enable-background:new 0 0 620.03 107.19;" xml:space="preserve">
<style type="text/css">
	.st0{fill:#003057;}
</style>
<g>
	<path class="st0" d="M2.76,13.91l1.5,0.4c5.66,1.48,8.91,4.87,8.91,9.28v73.85h16.88V57.11h34.26V46.17H30.05V17.94h41.05
		L66.94,7.82H2.76V13.91z"/>
	<path class="st0" d="M138.85,5.95c-20.92,0-43.29,12.2-43.29,46.45c0,29.16,16.18,46.57,43.29,46.57
		c27.11,0,43.29-17.41,43.29-46.57C182.14,18.15,159.78,5.95,138.85,5.95z M164.09,52.39c0,22.75-9.44,36.33-25.24,36.33
		c-15.8,0-25.24-13.58-25.24-36.33c0-22.41,9.67-36.33,25.24-36.33C154.42,16.07,164.09,29.98,164.09,52.39z"/>
	<path class="st0" d="M343.39,87.32V57.11h34.26V46.17h-34.26V17.94h41.05l-4.16-10.12h-64.17v6.09l1.5,0.4
		c5.66,1.48,8.91,4.87,8.91,9.28v73.85h56.26l4.16-10.12H343.39z"/>
	<path class="st0" d="M486.93,7.82v56.82l-50.47-48.98l-0.23-0.19c-1.91-1.61-4.77-4.26-8.76-5.94c0,0-3.86-1.71-8.96-1.71
		c-1.34,0-2.67,0-2.67,0v6.09l1.5,0.4c5.66,1.48,8.91,4.87,8.91,9.28v73.85h10.94V40.67l60.68,59.54V7.82H486.93z"/>
	<path class="st0" d="M567.29,7.82h-18.21v6.09l1.5,0.4c5.66,1.48,8.11,6.51,6.42,10.71h0l-32.45,72.43h11.07l7.25-16.14h39.62
		l7.37,16.14h18.57L567.29,7.82z M546.67,72.83l15.76-35.08l16.11,35.08H546.67z"/>
	<path class="st0" d="M260.58,58.07c10.94-3.73,19.51-11.5,19.51-23.1c0-11.73-5.76-20.27-16.22-24.04
		c-8.62-3.11-21.96-3.11-28.82-3.11h-25.84v6.09l1.5,0.4c5.66,1.48,8.91,4.87,8.91,9.28v73.85h16.88V60.12
		c2.03,0,4.24-0.02,6.57-0.08l27,37.08l0.22,0.31h19.48L260.58,58.07z M243.72,49.17h-7.23V18.31h10.25
		c1.59,0,15.53,0.43,15.53,15.43C262.28,48.74,245.31,49.17,243.72,49.17z"/>
</g>
</svg>
